<?xml version="1.0" encoding="UTF-8" standalone="no"?>
<!-- Generated by IcoMoon.io -->

<svg
   xmlns:dc="http://purl.org/dc/elements/1.1/"
   xmlns:cc="http://creativecommons.org/ns#"
   xmlns:rdf="http://www.w3.org/1999/02/22-rdf-syntax-ns#"
   xmlns:svg="http://www.w3.org/2000/svg"
   xmlns="http://www.w3.org/2000/svg"
   xmlns:sodipodi="http://sodipodi.sourceforge.net/DTD/sodipodi-0.dtd"
   xmlns:inkscape="http://www.inkscape.org/namespaces/inkscape"
   version="1.1"
   width="128"
   height="128"
   viewBox="0 0 128 128"
   id="svg2"
   inkscape:version="0.48.3.1 r9886"
   sodipodi:docname="icon.svg.2014_09_14_17_57_23.0.svg">
  <sodipodi:namedview
     pagecolor="#ffffff"
     bordercolor="#666666"
     borderopacity="1"
     objecttolerance="10"
     gridtolerance="10"
     guidetolerance="10"
     inkscape:pageopacity="0"
     inkscape:pageshadow="2"
     inkscape:window-width="1366"
     inkscape:window-height="722"
     id="namedview9"
     showgrid="false"
     inkscape:zoom="3.5039063"
     inkscape:cx="47.068031"
     inkscape:cy="57.147971"
     inkscape:window-x="0"
     inkscape:window-y="24"
     inkscape:window-maximized="1"
     inkscape:current-layer="layer2" />
  <metadata
     id="metadata13">
    <rdf:RDF>
      <cc:Work
         rdf:about="">
        <dc:format>image/svg+xml</dc:format>
        <dc:type
           rdf:resource="http://purl.org/dc/dcmitype/StillImage" />
        <dc:title></dc:title>
      </cc:Work>
    </rdf:RDF>
  </metadata>
  <defs
     id="defs11">
    <clipPath
       id="clipPath">
      <path
         style="fill:#ffffff"
         inkscape:connector-curvature="0"
         id="path7"
         d="m 48.883636,36.319086 v 45.177417 c -2.460286,-0.513947 -5.322688,-0.318837 -8.161297,0.730472 -6.383895,2.372249 -8.637173,8.147021 -6.94305,12.891518 1.689364,4.746877 6.688455,6.667047 13.072351,4.294793 5.420243,-2.01296 8.972667,-6.47669 8.882251,-10.685826 0,0 0,-23.958045 0,-37.320682 l 27.03459,-6.193544 v 28.666853 c -2.460282,-0.513948 -5.322685,-0.318839 -8.161293,0.730472 -6.388654,2.372248 -8.641934,8.147019 -6.947811,12.891517 1.694125,4.746877 6.688457,6.667042 13.077111,4.294793 5.424998,-2.012961 8.970293,-6.476691 8.884628,-10.685826 V 27.57008 l -40.735101,8.751385 z" />
    </clipPath>
    <filter
       y="-0.5"
       x="-0.5"
       width="2.0"
       height="2.0"
       id="filter">
      <feGaussianBlur
         id="feGaussianBlur3965"
         stdDeviation="5.0" />
    </filter>
  </defs>
  <g
     transform="translate(0,96)"
     id="icomoon-ignore">
    <line
       style="stroke:#449fdb;stroke-width:1"
       id="line5"
       opacity=""
       y2="0"
       x2="0"
       y1="0"
       x1="0" />
  </g>
  <path
     style="fill:#ffffff"
     inkscape:connector-curvature="0"
     id="path3971"
     d="m 48.883636,36.319086 v 45.177417 c -2.460286,-0.513947 -5.322688,-0.318837 -8.161297,0.730472 -6.383895,2.372249 -8.637173,8.147021 -6.94305,12.891518 1.689364,4.746877 6.688455,6.667047 13.072351,4.294793 5.420243,-2.01296 8.972667,-6.47669 8.882251,-10.685826 0,0 0,-23.958045 0,-37.320682 l 27.03459,-6.193544 v 28.666853 c -2.460282,-0.513948 -5.322685,-0.318839 -8.161293,0.730472 -6.388654,2.372248 -8.641934,8.147019 -6.947811,12.891517 1.694125,4.746877 6.688457,6.667042 13.077111,4.294793 5.424998,-2.012961 8.970293,-6.476691 8.884628,-10.685826 V 27.57008 l -40.735101,8.751385 z" />
  <g
     inkscape:groupmode="layer"
     id="layer2"
     inkscape:label="Main"
     style="display:inline">
    <rect
       ry="6.278707"
       y="16.880404"
       x="16.8804"
       height="94.239197"
       width="94.239197"
       id="rect3009"
       style="fill:#455ede;fill-opacity:1;stroke:none" />
    <path
       style="fill:#ffffff"
       inkscape:connector-curvature="0"
       d="m 48.787581,36.10223 v 45.531342 c -2.47956,-0.517974 -5.364387,-0.321335 -8.225233,0.736194 -6.433907,2.390833 -8.704839,8.210846 -6.997443,12.992511 1.702598,4.784063 6.740854,6.719273 13.174761,4.328439 5.462706,-2.028731 9.04296,-6.52743 8.951834,-10.769539 0,0 0,-24.145736 0,-37.613057 l 27.246386,-6.242064 v 28.891431 c -2.47956,-0.517973 -5.364387,-0.321336 -8.225234,0.736194 -6.438703,2.390833 -8.709634,8.210845 -7.002239,12.992512 1.707396,4.784064 6.740855,6.719272 13.179557,4.328438 5.467503,-2.02873 9.040563,-6.527429 8.954234,-10.769539 V 27.284684 l -41.054225,8.819945 z"
       id="path7-6" />
  </g>
</svg>
